<svg id="svg" version="1.1" xmlns="http://www.w3.org/2000/svg" xmlns:xlink="http://www.w3.org/1999/xlink" width="400" height="400" viewBox="0, 0, 400,400"><g id="svgg"><path id="path0" d="M76.400 306.447 C 76.400 306.641,76.040 306.800,75.600 306.800 C 75.160 306.800,74.800 306.980,74.800 307.200 C 74.800 307.420,74.538 307.600,74.217 307.600 C 73.189 307.600,69.200 311.897,69.200 313.005 C 69.200 313.332,69.020 313.600,68.800 313.600 C 68.556 313.600,68.400 315.459,68.400 318.376 C 68.400 321.129,68.569 323.258,68.800 323.400 C 69.020 323.536,69.200 323.997,69.200 324.424 C 69.200 324.851,69.380 325.200,69.600 325.200 C 69.820 325.200,70.000 325.475,70.000 325.811 C 70.000 326.604,73.396 330.000,74.189 330.000 C 74.525 330.000,74.800 330.180,74.800 330.400 C 74.800 330.620,75.130 330.800,75.533 330.800 C 75.937 330.800,76.360 330.893,76.473 331.006 C 76.743 331.276,373.257 331.276,373.527 331.006 C 373.640 330.893,374.063 330.800,374.467 330.800 C 374.870 330.800,375.200 330.620,375.200 330.400 C 375.200 330.180,375.475 330.000,375.811 330.000 C 376.604 330.000,380.000 326.604,380.000 325.811 C 380.000 325.475,380.180 325.200,380.400 325.200 C 380.620 325.200,380.800 324.851,380.800 324.424 C 380.800 323.997,380.980 323.536,381.200 323.400 C 381.431 323.258,381.600 321.129,381.600 318.376 C 381.600 315.459,381.444 313.600,381.200 313.600 C 380.980 313.600,380.800 313.229,380.800 312.776 C 380.800 312.323,380.653 312.044,380.473 312.155 C 380.293 312.266,379.932 311.782,379.671 311.079 C 379.223 309.873,376.587 307.600,375.636 307.600 C 375.396 307.600,375.200 307.420,375.200 307.200 C 375.200 306.980,374.840 306.800,374.400 306.800 C 373.960 306.800,373.600 306.665,373.600 306.500 C 373.600 306.335,306.730 306.176,225.000 306.147 C 139.354 306.116,76.400 306.244,76.400 306.447 " stroke="none" fill="#4c4c4c" fill-rule="evenodd"></path><path id="path1" d="M187.029 82.461 C 186.579 83.365,186.400 84.898,186.400 87.861 C 186.400 90.354,186.241 92.000,186.000 92.000 C 185.780 92.000,185.600 92.810,185.600 93.800 C 185.600 94.790,185.420 95.600,185.200 95.600 C 184.980 95.600,184.800 96.320,184.800 97.200 C 184.800 98.080,184.620 98.800,184.400 98.800 C 184.180 98.800,184.000 99.239,184.000 99.776 C 184.000 100.313,183.820 100.864,183.600 101.000 C 183.380 101.136,183.200 101.597,183.200 102.024 C 183.200 102.451,183.020 102.800,182.800 102.800 C 182.580 102.800,182.400 103.239,182.400 103.776 C 182.400 104.313,182.220 104.864,182.000 105.000 C 181.780 105.136,181.600 105.597,181.600 106.024 C 181.600 106.451,181.420 106.800,181.200 106.800 C 180.980 106.800,180.800 107.160,180.800 107.600 C 180.800 108.040,180.665 108.403,180.500 108.406 C 180.335 108.410,179.760 109.310,179.221 110.406 C 178.683 111.503,178.098 112.400,177.921 112.400 C 177.745 112.400,177.600 112.642,177.600 112.938 C 177.600 113.234,177.240 113.802,176.800 114.200 C 176.360 114.598,175.997 115.121,175.992 115.362 C 175.988 115.603,175.358 116.518,174.592 117.396 C 173.827 118.273,173.200 119.139,173.200 119.319 C 173.200 119.500,172.992 119.519,172.738 119.362 C 172.480 119.202,172.384 119.251,172.521 119.472 C 172.655 119.689,171.851 120.841,170.733 122.032 C 169.585 123.255,168.193 125.329,167.535 126.798 C 165.487 131.368,164.617 132.733,161.374 136.459 C 159.628 138.465,158.253 140.353,158.318 140.653 C 158.382 140.954,158.247 141.200,158.018 141.200 C 157.788 141.200,157.600 141.650,157.600 142.200 C 157.600 142.750,157.420 143.200,157.200 143.200 C 156.980 143.200,156.800 143.639,156.800 144.176 C 156.800 144.713,156.620 145.264,156.400 145.400 C 156.180 145.536,156.000 146.166,156.000 146.800 C 156.000 147.434,155.820 148.064,155.600 148.200 C 155.380 148.336,155.200 149.247,155.200 150.224 C 155.200 151.201,155.020 152.000,154.800 152.000 C 154.567 152.000,154.400 153.333,154.400 155.200 C 154.400 156.960,154.242 158.400,154.049 158.400 C 153.537 158.400,153.471 166.273,153.981 166.588 C 154.212 166.731,154.400 168.174,154.400 169.800 C 154.400 171.424,154.580 172.864,154.800 173.000 C 155.020 173.136,155.200 174.047,155.200 175.024 C 155.200 176.001,155.380 176.800,155.600 176.800 C 155.820 176.800,156.000 177.340,156.000 178.000 C 156.000 178.660,156.180 179.200,156.400 179.200 C 156.620 179.200,156.800 179.841,156.800 180.624 C 156.800 181.471,156.962 181.947,157.200 181.800 C 157.433 181.656,157.600 182.063,157.600 182.776 C 157.600 183.449,157.780 184.000,158.000 184.000 C 158.220 184.000,158.400 184.439,158.400 184.976 C 158.400 185.513,158.580 186.064,158.800 186.200 C 160.176 187.050,158.116 187.200,145.043 187.200 C 129.436 187.200,130.405 187.032,130.396 189.733 C 130.364 198.887,120.900 206.342,109.255 206.386 L 105.511 206.400 105.855 207.900 C 106.294 209.813,106.285 215.289,105.840 217.500 L 105.498 219.200 146.163 219.200 L 186.829 219.200 194.157 226.552 C 198.188 230.596,202.007 234.593,202.643 235.434 C 203.279 236.276,204.295 237.442,204.900 238.026 C 205.505 238.609,206.000 239.210,206.000 239.361 C 206.000 239.512,206.459 240.122,207.021 240.717 C 207.582 241.313,208.415 242.655,208.870 243.700 C 209.326 244.745,209.856 245.600,210.049 245.600 C 210.242 245.600,210.400 245.960,210.400 246.400 C 210.400 246.840,210.580 247.200,210.800 247.200 C 211.020 247.200,211.200 247.560,211.200 248.000 C 211.200 248.440,211.380 248.800,211.600 248.800 C 211.820 248.800,212.000 249.160,212.000 249.600 C 212.000 250.040,212.180 250.400,212.400 250.400 C 212.620 250.400,212.800 250.760,212.800 251.200 C 212.800 251.640,212.980 252.000,213.200 252.000 C 213.420 252.000,213.600 252.450,213.600 253.000 C 213.600 253.550,213.780 254.000,214.000 254.000 C 214.220 254.000,214.400 254.540,214.400 255.200 C 214.400 255.860,214.580 256.400,214.800 256.400 C 215.020 256.400,215.200 256.940,215.200 257.600 C 215.200 258.260,215.380 258.800,215.600 258.800 C 215.820 258.800,216.000 259.520,216.000 260.400 C 216.000 261.280,216.180 262.000,216.400 262.000 C 216.620 262.000,216.800 262.900,216.800 264.000 C 216.800 265.100,216.980 266.000,217.200 266.000 C 217.433 266.000,217.600 267.318,217.600 269.153 C 217.600 272.791,218.072 273.238,220.725 272.113 C 223.024 271.138,226.987 270.141,231.600 269.377 C 236.178 268.619,251.398 268.616,256.000 269.373 C 260.342 270.087,261.123 270.275,265.000 271.540 C 266.760 272.115,268.380 272.589,268.600 272.593 C 269.066 272.601,269.530 268.272,269.821 261.200 C 269.934 258.450,270.191 255.840,270.394 255.400 C 270.596 254.960,270.846 253.700,270.949 252.600 C 271.052 251.500,271.341 249.700,271.590 248.600 C 271.840 247.500,272.144 246.015,272.266 245.300 C 272.388 244.585,272.648 244.000,272.844 244.000 C 273.040 244.000,273.200 243.552,273.200 243.004 C 273.200 242.457,273.553 241.079,273.985 239.942 C 274.417 238.806,274.676 237.724,274.562 237.538 C 274.447 237.352,274.543 237.200,274.776 237.200 C 275.009 237.200,275.200 236.649,275.200 235.976 C 275.200 235.263,275.367 234.856,275.600 235.000 C 275.827 235.140,276.000 234.804,276.000 234.224 C 276.000 233.661,276.180 233.200,276.400 233.200 C 276.620 233.200,276.800 232.855,276.800 232.433 C 276.800 232.012,276.952 231.607,277.138 231.533 C 278.630 230.945,277.971 229.105,275.413 226.723 C 271.082 222.689,269.308 219.080,268.813 213.298 C 268.544 210.163,268.104 208.803,267.712 209.900 C 267.614 210.175,267.222 210.400,266.842 210.400 C 266.214 210.400,263.654 211.445,261.905 212.415 C 261.523 212.627,260.938 212.800,260.605 212.800 C 260.272 212.800,260.000 212.958,260.000 213.151 C 260.000 213.345,259.460 213.727,258.800 214.000 C 258.140 214.273,257.600 214.655,257.600 214.849 C 257.600 215.042,257.280 215.200,256.888 215.200 C 256.497 215.200,255.924 215.550,255.615 215.979 C 255.307 216.407,254.927 216.679,254.773 216.583 C 254.618 216.487,253.805 217.037,252.967 217.804 C 252.129 218.572,251.290 219.200,251.103 219.200 C 250.915 219.200,249.519 220.460,248.000 222.000 C 244.715 225.331,244.694 225.334,242.400 222.734 C 240.139 220.171,228.800 208.752,228.800 209.037 C 228.800 209.154,227.765 208.153,226.500 206.813 C 220.967 200.952,211.960 192.000,211.597 192.000 C 211.379 192.000,211.200 191.716,211.200 191.369 C 211.200 191.021,210.480 190.046,209.600 189.200 C 208.720 188.354,208.000 187.389,208.000 187.055 C 208.000 186.721,207.831 186.343,207.625 186.216 C 206.080 185.261,205.961 183.428,207.359 182.109 C 208.122 181.389,208.866 180.800,209.013 180.800 C 209.159 180.800,209.783 180.260,210.400 179.600 C 211.017 178.940,211.809 178.400,212.160 178.400 C 212.512 178.400,212.800 178.220,212.800 178.000 C 212.800 177.780,213.036 177.600,213.325 177.600 C 213.613 177.600,214.236 177.240,214.708 176.800 C 215.180 176.360,215.778 176.000,216.036 176.000 C 216.295 176.000,216.842 175.612,217.253 175.139 C 217.664 174.665,218.000 174.399,218.000 174.548 C 218.000 174.697,219.152 174.196,220.560 173.436 C 221.968 172.676,223.228 172.162,223.360 172.294 C 223.492 172.425,223.600 172.323,223.600 172.067 C 223.600 171.810,223.960 171.600,224.400 171.600 C 224.840 171.600,225.200 171.420,225.200 171.200 C 225.200 170.980,225.560 170.800,226.000 170.800 C 226.440 170.800,226.800 170.620,226.800 170.400 C 226.800 170.180,227.160 170.000,227.600 170.000 C 228.040 170.000,228.400 169.820,228.400 169.600 C 228.400 169.380,228.839 169.200,229.376 169.200 C 229.913 169.200,230.464 169.020,230.600 168.800 C 230.736 168.580,231.377 168.400,232.024 168.400 C 232.671 168.400,233.200 168.220,233.200 168.000 C 233.200 167.780,233.650 167.600,234.200 167.600 C 234.750 167.600,235.200 167.420,235.200 167.200 C 235.200 166.980,235.830 166.800,236.600 166.800 C 237.370 166.800,238.000 166.620,238.000 166.400 C 238.000 166.180,238.630 166.000,239.400 166.000 C 240.170 166.000,240.800 165.820,240.800 165.600 C 240.800 165.380,241.509 165.200,242.376 165.200 C 243.243 165.200,244.064 165.020,244.200 164.800 C 244.336 164.580,245.506 164.400,246.800 164.400 C 248.094 164.400,249.264 164.220,249.400 164.000 C 249.542 163.770,251.663 163.600,254.400 163.600 C 257.137 163.600,259.258 163.430,259.400 163.200 C 259.543 162.968,261.737 162.800,264.624 162.800 C 267.675 162.800,269.600 162.645,269.600 162.400 C 269.600 162.180,270.230 162.000,271.000 162.000 C 272.704 162.000,272.705 161.981,271.140 159.013 C 267.663 152.417,268.087 144.887,272.247 139.327 C 272.771 138.626,273.200 137.861,273.200 137.627 C 273.200 137.328,264.586 137.200,244.576 137.200 C 225.596 137.200,216.036 137.335,216.200 137.600 C 216.353 137.848,215.604 138.000,214.224 138.000 C 213.001 138.000,212.000 138.180,212.000 138.400 C 212.000 138.620,211.370 138.800,210.600 138.800 C 209.830 138.800,209.200 138.980,209.200 139.200 C 209.200 139.420,208.615 139.594,207.900 139.587 C 206.734 139.576,206.672 139.520,207.300 139.043 C 207.685 138.751,208.000 138.333,208.000 138.115 C 208.000 137.897,208.540 137.154,209.200 136.463 C 209.860 135.772,210.400 135.026,210.400 134.804 C 210.400 134.582,210.580 134.400,210.800 134.400 C 211.020 134.400,211.200 134.119,211.200 133.776 C 211.200 133.433,211.380 133.264,211.600 133.400 C 211.820 133.536,212.000 133.447,212.000 133.201 C 212.000 132.956,213.080 131.696,214.400 130.400 C 215.720 129.104,216.800 127.804,216.800 127.510 C 216.800 127.217,217.160 126.717,217.600 126.400 C 218.040 126.083,218.400 125.569,218.400 125.259 C 218.400 124.948,218.716 124.403,219.103 124.047 C 219.489 123.691,220.074 122.860,220.402 122.200 C 220.730 121.540,221.089 120.910,221.199 120.800 C 221.386 120.614,222.314 118.307,222.567 117.400 C 222.629 117.180,222.793 116.730,222.933 116.400 C 224.675 112.281,224.534 111.582,221.597 109.798 C 212.332 104.170,209.615 91.026,216.031 82.870 C 216.454 82.332,216.800 81.736,216.800 81.546 C 216.800 81.356,210.243 81.200,202.229 81.200 L 187.659 81.200 187.029 82.461 M98.860 119.101 C 98.173 119.346,76.872 140.698,75.800 142.216 C 75.360 142.839,74.595 143.836,74.100 144.432 C 73.605 145.028,73.200 145.715,73.200 145.958 C 73.200 146.201,73.020 146.400,72.800 146.400 C 72.580 146.400,72.400 146.636,72.400 146.925 C 72.400 147.213,72.040 147.836,71.600 148.308 C 71.160 148.780,70.800 149.444,70.800 149.783 C 70.800 150.122,70.620 150.400,70.400 150.400 C 70.180 150.400,70.000 150.839,70.000 151.376 C 70.000 151.913,69.820 152.464,69.600 152.600 C 69.380 152.736,69.200 153.197,69.200 153.624 C 69.200 154.051,69.020 154.400,68.800 154.400 C 68.580 154.400,68.400 154.839,68.400 155.376 C 68.400 155.913,68.220 156.464,68.000 156.600 C 67.780 156.736,67.600 157.377,67.600 158.024 C 67.600 158.671,67.420 159.200,67.200 159.200 C 66.980 159.200,66.800 159.794,66.800 160.520 C 66.800 161.246,66.634 162.011,66.430 162.220 C 66.227 162.429,65.993 163.950,65.912 165.600 C 65.830 167.250,65.626 168.892,65.459 169.248 C 64.974 170.280,66.260 170.487,68.339 169.710 C 69.905 169.125,71.913 168.997,81.000 168.904 C 94.858 168.761,93.428 169.267,93.271 164.567 C 93.192 162.176,93.306 160.534,93.571 160.269 C 93.807 160.033,94.000 159.246,94.000 158.520 C 94.000 157.794,94.180 157.200,94.400 157.200 C 94.620 157.200,94.800 156.750,94.800 156.200 C 94.800 155.650,94.980 155.200,95.200 155.200 C 95.420 155.200,95.600 154.840,95.600 154.400 C 95.600 153.960,95.780 153.600,96.000 153.600 C 96.220 153.600,96.400 153.240,96.400 152.800 C 96.400 152.360,96.580 152.000,96.800 152.000 C 97.020 152.000,97.200 151.640,97.200 151.200 C 97.200 150.760,97.380 150.400,97.600 150.400 C 97.820 150.400,98.000 150.040,98.000 149.600 C 98.000 149.160,98.180 148.800,98.400 148.800 C 98.620 148.800,98.800 148.440,98.800 148.000 C 98.800 147.560,98.980 147.200,99.200 147.200 C 99.420 147.200,99.600 146.840,99.600 146.400 C 99.600 145.960,99.780 145.600,100.000 145.600 C 100.220 145.600,100.400 145.240,100.400 144.800 C 100.400 144.360,100.580 144.000,100.800 144.000 C 101.020 144.000,101.200 143.640,101.200 143.200 C 101.200 142.760,101.380 142.400,101.600 142.400 C 101.820 142.400,102.000 142.040,102.000 141.600 C 102.000 141.160,102.146 140.800,102.325 140.800 C 102.504 140.800,102.898 140.170,103.200 139.400 C 103.502 138.630,103.896 138.000,104.075 138.000 C 104.254 138.000,104.400 137.640,104.400 137.200 C 104.400 136.760,104.580 136.400,104.800 136.400 C 105.020 136.400,105.200 135.992,105.200 135.494 C 105.200 134.648,104.871 133.918,102.633 129.800 C 101.354 127.446,100.006 122.693,100.002 120.524 C 100.000 119.152,99.714 118.796,98.860 119.101 " stroke="none" fill="#bb8b5b" fill-rule="evenodd"></path><path id="path2" d="M255.798 43.603 C 255.686 43.785,255.798 44.886,256.048 46.051 C 256.301 47.229,256.410 49.649,256.294 51.510 C 256.048 55.453,255.466 55.009,262.706 56.403 C 266.597 57.152,267.715 57.245,268.106 56.854 C 268.678 56.282,269.041 47.802,268.616 44.966 L 268.346 43.168 262.174 43.221 C 258.779 43.250,255.910 43.422,255.798 43.603 M84.800 49.953 C 84.800 50.199,84.260 50.400,83.600 50.400 C 82.940 50.400,82.400 50.580,82.400 50.800 C 82.400 51.020,82.040 51.200,81.600 51.200 C 81.160 51.200,80.800 51.380,80.800 51.600 C 80.800 51.820,80.665 51.979,80.500 51.953 C 79.683 51.824,78.775 52.036,78.948 52.315 C 79.055 52.488,78.660 52.844,78.071 53.105 C 76.555 53.777,72.737 57.574,73.057 58.092 C 73.204 58.329,73.143 58.412,72.922 58.275 C 72.701 58.139,72.283 58.471,71.993 59.014 C 71.702 59.556,71.315 60.000,71.132 60.000 C 70.950 60.000,70.800 60.360,70.800 60.800 C 70.800 61.240,70.620 61.600,70.400 61.600 C 70.180 61.600,70.000 62.061,70.000 62.624 C 70.000 63.204,69.827 63.540,69.600 63.400 C 69.362 63.253,69.200 63.729,69.200 64.576 C 69.200 65.359,69.020 66.000,68.800 66.000 C 68.552 66.000,68.400 68.200,68.400 71.800 C 68.400 75.400,68.552 77.600,68.800 77.600 C 69.020 77.600,69.206 78.095,69.213 78.700 C 69.243 81.285,68.676 81.200,85.924 81.200 C 107.762 81.200,112.098 82.641,116.604 91.396 L 117.800 93.720 134.800 93.813 C 168.694 93.999,171.398 93.982,171.533 93.589 C 171.607 93.375,172.181 93.200,172.810 93.200 C 173.438 93.200,174.064 93.020,174.200 92.800 C 174.336 92.580,174.797 92.400,175.224 92.400 C 175.651 92.400,176.000 92.220,176.000 92.000 C 176.000 91.780,176.270 91.600,176.600 91.600 C 176.930 91.600,177.560 91.240,178.000 90.800 C 178.440 90.360,178.804 90.135,178.809 90.300 C 178.814 90.465,179.189 90.150,179.644 89.600 C 180.098 89.050,180.337 88.870,180.176 89.200 C 180.015 89.530,180.623 89.094,181.528 88.232 C 182.433 87.369,183.458 86.064,183.806 85.332 C 184.153 84.599,184.596 84.000,184.789 84.000 C 185.313 84.000,186.388 81.663,185.933 81.511 C 185.704 81.435,185.786 80.657,186.137 79.591 C 190.392 66.657,183.859 54.293,170.800 50.565 C 167.988 49.762,84.800 49.170,84.800 49.953 M228.510 75.225 C 211.426 77.448,206.778 100.796,221.624 109.815 C 222.931 110.609,224.000 111.470,224.000 111.729 C 224.000 112.448,224.700 112.481,241.000 112.543 L 256.200 112.600 257.212 109.600 C 259.367 103.209,263.173 98.681,268.602 96.050 C 273.189 93.827,275.339 93.630,295.100 93.614 L 312.800 93.600 312.800 90.800 C 312.800 89.200,312.629 88.000,312.400 88.000 C 312.180 88.000,312.000 87.449,312.000 86.776 C 312.000 86.063,311.833 85.656,311.600 85.800 C 311.380 85.936,311.200 85.767,311.200 85.424 C 311.200 84.507,311.102 84.294,310.210 83.268 C 309.765 82.755,309.403 82.215,309.407 82.068 C 309.411 81.921,308.372 80.765,307.099 79.500 C 304.990 77.404,304.390 77.012,303.500 77.153 C 303.335 77.179,303.200 77.016,303.200 76.790 C 303.200 76.294,301.340 75.524,300.107 75.510 C 299.616 75.505,299.312 75.343,299.431 75.150 C 299.703 74.709,231.925 74.781,228.510 75.225 M330.400 112.840 C 325.403 114.152,322.604 115.539,319.689 118.145 C 318.813 118.929,318.364 118.955,307.789 118.845 L 296.800 118.729 296.800 124.965 L 296.800 131.200 305.585 131.200 C 313.209 131.200,314.649 131.300,316.485 131.960 C 320.800 133.512,323.213 133.318,324.997 131.277 C 325.515 130.685,326.614 129.423,327.439 128.474 C 330.118 125.393,329.967 125.425,343.083 125.200 C 355.341 124.990,356.437 124.801,355.841 123.000 C 355.768 122.780,355.900 122.240,356.135 121.800 C 356.628 120.875,356.924 115.613,356.591 113.700 L 356.364 112.400 344.082 112.436 C 337.327 112.456,331.170 112.638,330.400 112.840 M321.090 206.300 L 312.379 206.416 312.490 212.508 L 312.600 218.600 321.190 218.708 C 325.915 218.768,330.055 218.694,330.390 218.545 C 330.726 218.395,331.135 218.302,331.300 218.336 C 331.757 218.433,331.654 209.209,331.179 207.500 C 330.950 206.675,330.546 206.041,330.281 206.092 C 330.017 206.142,325.880 206.236,321.090 206.300 M81.290 212.494 L 81.400 218.600 93.435 218.706 L 105.469 218.812 105.997 215.418 C 106.442 212.556,106.437 211.599,105.963 209.312 L 105.400 206.600 93.290 206.494 L 81.179 206.388 81.290 212.494 M215.731 306.300 C 231.313 306.358,256.693 306.358,272.131 306.300 C 287.569 306.242,274.820 306.195,243.800 306.195 C 212.780 306.195,200.149 306.242,215.731 306.300 " stroke="none" fill="#6c9c4c" fill-rule="evenodd"></path><path id="path3" d="M81.067 331.466 C 80.650 331.884,80.754 339.917,81.179 340.067 C 81.387 340.140,81.600 341.055,81.653 342.100 C 81.706 343.145,81.896 344.000,82.075 344.000 C 82.254 344.000,82.403 344.405,82.406 344.900 C 82.413 345.876,83.282 348.615,83.726 349.059 C 83.877 349.210,84.000 349.753,84.000 350.267 C 84.000 350.780,84.180 351.200,84.400 351.200 C 84.620 351.200,84.800 351.560,84.800 352.000 C 84.800 352.440,84.980 352.800,85.200 352.800 C 85.420 352.800,85.600 353.160,85.600 353.600 C 85.600 354.040,85.780 354.400,86.000 354.400 C 86.220 354.400,86.400 354.760,86.400 355.200 C 86.400 355.640,86.580 356.000,86.800 356.000 C 87.020 356.000,87.200 356.270,87.200 356.600 C 87.200 356.930,87.380 357.200,87.600 357.200 C 87.820 357.200,88.000 357.520,88.000 357.912 C 88.000 358.303,88.360 358.883,88.800 359.200 C 89.240 359.517,89.600 359.972,89.600 360.210 C 89.600 360.587,90.452 361.669,92.976 364.500 C 93.319 364.885,93.600 365.297,93.600 365.416 C 93.600 365.637,95.491 367.498,98.303 370.045 C 100.207 371.769,104.096 374.400,104.741 374.400 C 104.994 374.400,105.200 374.580,105.200 374.800 C 105.200 375.020,105.560 375.200,106.000 375.200 C 106.440 375.200,106.800 375.380,106.800 375.600 C 106.800 375.820,107.145 376.000,107.567 376.000 C 107.988 376.000,108.393 376.135,108.467 376.300 C 108.540 376.465,109.500 377.025,110.600 377.544 C 111.700 378.063,112.913 378.648,113.295 378.844 C 113.677 379.040,114.341 379.200,114.771 379.200 C 115.201 379.200,115.664 379.380,115.800 379.600 C 115.936 379.820,116.577 380.000,117.224 380.000 C 117.871 380.000,118.400 380.180,118.400 380.400 C 118.400 380.620,119.300 380.800,120.400 380.800 C 121.500 380.800,122.400 380.980,122.400 381.200 C 122.400 381.466,156.867 381.600,225.000 381.600 C 293.133 381.600,327.600 381.466,327.600 381.200 C 327.600 380.980,328.500 380.800,329.600 380.800 C 330.700 380.800,331.600 380.620,331.600 380.400 C 331.600 380.180,332.129 380.000,332.776 380.000 C 333.423 380.000,334.064 379.820,334.200 379.600 C 334.336 379.380,334.876 379.200,335.400 379.200 C 335.924 379.200,336.464 379.020,336.600 378.800 C 336.736 378.580,337.197 378.400,337.624 378.400 C 338.051 378.400,338.400 378.220,338.400 378.000 C 338.400 377.780,338.760 377.600,339.200 377.600 C 339.640 377.600,340.000 377.420,340.000 377.200 C 340.000 376.980,340.360 376.800,340.800 376.800 C 341.240 376.800,341.600 376.620,341.600 376.400 C 341.600 376.180,341.960 376.000,342.400 376.000 C 342.840 376.000,343.200 375.820,343.200 375.600 C 343.200 375.380,343.560 375.200,344.000 375.200 C 344.440 375.200,344.800 375.032,344.800 374.827 C 344.800 374.622,345.177 374.334,345.638 374.188 C 346.630 373.873,349.695 371.842,351.335 370.414 C 353.473 368.551,357.600 364.337,357.600 364.017 C 357.600 363.843,358.230 363.013,359.000 362.172 C 359.770 361.331,360.400 360.491,360.400 360.305 C 360.400 360.119,360.760 359.580,361.200 359.108 C 361.640 358.636,362.000 358.013,362.000 357.725 C 362.000 357.436,362.180 357.200,362.400 357.200 C 362.620 357.200,362.800 356.930,362.800 356.600 C 362.800 356.270,362.980 356.000,363.200 356.000 C 363.420 356.000,363.600 355.766,363.600 355.480 C 363.600 354.744,364.541 352.807,364.900 352.803 C 365.065 352.801,365.200 352.440,365.200 352.000 C 365.200 351.560,365.380 351.200,365.600 351.200 C 365.820 351.200,366.000 350.761,366.000 350.224 C 366.000 349.687,366.180 349.136,366.400 349.000 C 366.620 348.864,366.800 348.324,366.800 347.800 C 366.800 347.276,366.980 346.736,367.200 346.600 C 367.420 346.464,367.600 345.823,367.600 345.176 C 367.600 344.529,367.746 344.000,367.925 344.000 C 368.104 344.000,368.294 343.151,368.348 342.113 C 368.402 341.076,368.622 340.014,368.838 339.754 C 369.054 339.494,369.178 337.514,369.115 335.341 L 369.000 331.400 225.167 331.299 C 146.059 331.244,81.214 331.319,81.067 331.466 " stroke="none" fill="#838383" fill-rule="evenodd"></path><path id="path4" d="M180.207 18.811 C 180.345 19.035,179.843 19.200,179.024 19.200 C 178.241 19.200,177.600 19.380,177.600 19.600 C 177.600 19.820,177.150 20.000,176.600 20.000 C 176.050 20.000,175.600 20.180,175.600 20.400 C 175.600 20.620,175.251 20.800,174.824 20.800 C 174.397 20.800,173.936 20.980,173.800 21.200 C 173.664 21.420,173.237 21.600,172.852 21.600 C 172.466 21.600,171.764 21.960,171.292 22.400 C 170.820 22.840,170.291 23.200,170.117 23.200 C 169.943 23.201,169.282 23.647,168.648 24.192 C 168.014 24.737,167.311 25.069,167.086 24.930 C 166.851 24.784,166.798 24.873,166.962 25.138 C 167.119 25.392,167.051 25.600,166.811 25.600 C 166.571 25.600,165.853 26.185,165.215 26.900 C 164.577 27.615,163.326 29.010,162.436 30.000 C 161.545 30.990,160.711 32.115,160.581 32.500 C 160.452 32.885,160.159 33.200,159.930 33.200 C 159.702 33.200,159.612 33.455,159.732 33.767 C 159.852 34.079,159.679 34.437,159.349 34.564 C 159.019 34.691,158.854 34.963,158.981 35.170 C 159.109 35.376,159.030 35.658,158.807 35.796 C 158.583 35.934,158.400 36.487,158.400 37.024 C 158.400 37.561,158.220 38.000,158.000 38.000 C 157.780 38.000,157.600 38.349,157.600 38.776 C 157.600 39.203,157.420 39.664,157.200 39.800 C 156.980 39.936,156.800 40.667,156.800 41.424 C 156.800 42.181,156.620 42.800,156.400 42.800 C 156.163 42.800,156.000 44.267,156.000 46.400 L 156.000 50.000 162.180 50.000 C 180.930 50.000,191.561 63.083,186.163 79.514 C 185.853 80.457,185.600 81.267,185.600 81.314 C 185.600 81.361,192.730 81.353,201.445 81.294 L 217.290 81.189 219.117 79.580 C 224.350 74.974,225.523 74.829,257.800 74.806 C 272.100 74.796,283.980 74.656,284.201 74.494 C 284.421 74.332,284.856 73.705,285.168 73.100 C 285.480 72.495,285.885 72.000,286.068 72.000 C 286.250 72.000,286.400 71.638,286.400 71.195 C 286.400 70.752,286.559 70.077,286.753 69.695 C 287.963 67.316,288.043 66.780,287.866 62.180 C 287.661 56.833,287.289 54.298,286.757 54.627 C 286.560 54.748,286.400 54.655,286.400 54.419 C 286.400 53.560,284.704 50.412,284.357 50.626 C 284.161 50.748,284.000 50.678,284.000 50.472 C 284.000 50.265,283.293 49.400,282.428 48.548 C 280.408 46.558,279.600 45.900,279.600 46.245 C 279.600 46.398,279.264 46.135,278.853 45.661 C 278.442 45.188,277.750 44.800,277.315 44.800 C 276.879 44.800,275.930 44.504,275.205 44.143 C 274.480 43.781,272.698 43.400,271.244 43.296 L 268.600 43.107 268.600 49.733 C 268.600 58.058,268.993 57.613,262.706 56.402 C 255.558 55.024,256.287 55.719,256.168 50.167 C 256.112 47.545,256.006 44.950,255.933 44.400 C 255.847 43.757,255.980 43.436,256.304 43.501 C 256.666 43.574,256.703 43.404,256.435 42.901 C 256.229 42.516,255.842 41.340,255.575 40.290 C 255.309 39.239,254.935 38.283,254.745 38.166 C 254.555 38.049,254.400 37.503,254.400 36.953 C 254.400 36.388,254.226 36.060,254.000 36.200 C 253.780 36.336,253.600 36.077,253.600 35.624 C 253.600 35.171,253.409 34.800,253.176 34.800 C 252.943 34.800,252.855 34.635,252.980 34.432 C 253.105 34.230,252.942 33.799,252.618 33.475 C 252.294 33.151,251.977 32.641,251.914 32.343 C 251.851 32.044,251.485 31.565,251.100 31.277 C 250.715 30.990,250.400 30.559,250.400 30.320 C 250.400 29.744,245.244 24.800,244.644 24.800 C 244.387 24.800,243.917 24.440,243.600 24.000 C 243.283 23.560,242.703 23.200,242.312 23.200 C 241.920 23.200,241.600 23.020,241.600 22.800 C 241.600 22.580,241.330 22.400,241.000 22.400 C 240.670 22.400,240.399 22.265,240.397 22.100 C 240.393 21.749,238.463 20.800,237.754 20.800 C 237.486 20.800,237.207 20.622,237.133 20.403 C 237.060 20.185,236.505 19.966,235.900 19.916 C 235.295 19.866,234.800 19.685,234.800 19.513 C 234.800 19.341,234.271 19.200,233.624 19.200 C 232.977 19.200,232.334 19.018,232.197 18.795 C 232.031 18.527,223.101 18.395,205.956 18.406 C 189.236 18.417,180.052 18.561,180.207 18.811 M44.400 81.162 C 44.400 81.403,44.071 81.600,43.668 81.600 C 42.693 81.600,39.145 83.412,39.475 83.741 C 39.617 83.884,39.429 84.000,39.058 84.000 C 38.341 84.000,34.566 87.626,33.662 89.183 C 31.985 92.075,31.600 92.901,31.600 93.612 C 31.600 94.045,31.420 94.400,31.200 94.400 C 30.952 94.400,30.800 96.533,30.800 100.000 C 30.800 103.467,30.952 105.600,31.200 105.600 C 31.420 105.600,31.600 105.929,31.600 106.332 C 31.600 107.307,33.412 110.855,33.741 110.525 C 33.884 110.383,34.000 110.571,34.000 110.942 C 34.000 111.821,38.179 116.000,39.058 116.000 C 39.429 116.000,39.615 116.118,39.470 116.263 C 39.326 116.408,40.151 116.964,41.304 117.500 C 42.457 118.036,43.716 118.640,44.103 118.842 C 44.513 119.057,56.286 119.203,72.303 119.192 L 99.800 119.173 99.900 120.086 C 100.292 123.644,101.350 127.391,102.643 129.800 C 104.877 133.960,105.200 134.615,105.203 134.994 C 105.207 135.573,110.056 140.223,110.511 140.085 C 110.719 140.022,111.125 140.292,111.413 140.685 C 111.700 141.078,112.130 141.422,112.368 141.450 C 112.605 141.478,113.081 141.523,113.424 141.550 C 113.767 141.578,113.936 141.780,113.800 142.000 C 113.656 142.233,114.063 142.400,114.776 142.400 C 115.449 142.400,116.000 142.580,116.000 142.800 C 116.000 143.020,116.529 143.200,117.176 143.200 C 117.823 143.200,118.464 143.380,118.600 143.600 C 118.758 143.856,124.471 144.000,134.424 144.000 C 144.541 144.000,150.000 143.860,150.000 143.600 C 150.000 143.380,150.630 143.200,151.400 143.200 C 152.170 143.200,152.800 143.020,152.800 142.800 C 152.800 142.580,153.250 142.400,153.800 142.400 C 154.350 142.400,154.800 142.220,154.800 142.000 C 154.800 141.780,155.160 141.600,155.600 141.600 C 156.040 141.600,156.400 141.420,156.400 141.200 C 156.400 140.980,156.627 140.800,156.905 140.800 C 157.812 140.800,164.147 133.584,165.508 131.000 C 169.040 124.299,169.200 123.729,169.200 117.858 C 169.200 114.486,169.047 112.400,168.800 112.400 C 168.580 112.400,168.400 111.860,168.400 111.200 C 168.400 110.540,168.220 110.000,168.000 110.000 C 167.780 110.000,167.600 109.728,167.600 109.395 C 167.600 108.808,167.442 108.407,166.462 106.500 C 165.506 104.639,164.977 103.820,164.200 102.998 C 163.760 102.533,162.950 101.580,162.400 100.880 C 161.850 100.180,161.263 99.606,161.096 99.604 C 160.929 99.602,160.228 99.060,159.537 98.400 C 158.846 97.740,158.053 97.200,157.774 97.200 C 157.495 97.200,157.207 97.065,157.133 96.900 C 155.971 94.284,150.881 93.654,131.613 93.739 L 117.826 93.800 116.617 91.436 C 114.165 86.642,108.869 82.668,103.600 81.669 C 100.412 81.065,44.400 80.585,44.400 81.162 M293.800 93.616 C 281.067 93.785,274.020 94.030,272.877 94.343 C 262.634 97.146,255.863 106.518,256.028 117.662 C 256.064 120.050,256.251 121.892,256.446 121.771 C 256.641 121.651,256.800 122.093,256.800 122.753 C 256.800 123.413,256.980 124.064,257.200 124.200 C 257.420 124.336,257.600 124.797,257.600 125.224 C 257.600 125.651,257.780 126.000,258.000 126.000 C 258.220 126.000,258.400 126.193,258.400 126.428 C 258.400 126.931,260.754 130.467,261.374 130.894 C 261.634 131.073,261.644 131.191,261.400 131.197 C 261.180 131.201,261.496 131.533,262.103 131.933 C 262.710 132.333,263.085 132.782,262.937 132.930 C 262.788 133.079,263.057 133.200,263.533 133.200 C 264.010 133.200,264.400 133.338,264.400 133.506 C 264.400 133.674,265.120 134.256,266.000 134.800 C 266.880 135.344,267.600 135.888,267.600 136.009 C 267.600 136.131,267.989 136.259,268.464 136.295 C 268.939 136.331,269.454 136.564,269.609 136.814 C 269.763 137.064,270.004 137.253,270.145 137.234 C 273.115 136.837,273.686 137.404,272.247 139.327 C 268.087 144.887,267.663 152.417,271.140 159.013 C 271.832 160.326,272.399 161.629,272.399 161.909 C 272.400 162.188,273.390 163.407,274.600 164.617 C 275.810 165.827,276.800 166.696,276.800 166.547 C 276.800 166.398,277.117 166.563,277.505 166.914 C 277.893 167.265,279.063 167.780,280.105 168.059 C 281.147 168.338,282.000 168.712,282.000 168.890 C 282.000 169.069,290.196 169.205,300.214 169.192 C 311.761 169.177,318.341 169.028,318.190 168.785 C 318.060 168.573,318.426 168.400,319.004 168.400 C 319.583 168.400,320.841 167.860,321.800 167.200 C 322.759 166.540,323.651 166.000,323.781 166.000 C 324.206 166.000,328.400 161.629,328.400 161.185 C 328.400 160.947,328.608 160.881,328.862 161.038 C 329.136 161.207,329.215 161.149,329.058 160.894 C 328.912 160.658,329.064 160.193,329.396 159.861 C 329.728 159.529,330.006 159.019,330.013 158.729 C 330.060 156.768,329.730 156.800,350.094 156.800 C 365.737 156.800,369.392 156.697,370.755 156.216 C 371.666 155.894,372.454 155.636,372.506 155.642 C 373.728 155.772,379.192 150.442,380.195 148.142 C 380.565 147.294,381.032 146.287,381.234 145.905 C 381.740 144.945,381.710 135.600,381.200 135.600 C 380.980 135.600,380.800 135.060,380.800 134.400 C 380.800 133.740,380.620 133.200,380.400 133.200 C 380.180 133.200,380.000 132.930,380.000 132.600 C 380.000 132.270,379.820 132.000,379.600 132.000 C 379.380 132.000,379.200 131.730,379.200 131.400 C 379.200 131.070,379.020 130.800,378.800 130.800 C 378.580 130.800,378.400 130.614,378.400 130.387 C 378.400 129.619,374.620 126.400,373.719 126.400 C 373.433 126.400,373.200 126.220,373.200 126.000 C 373.200 125.780,372.671 125.600,372.024 125.600 C 371.377 125.600,370.726 125.404,370.578 125.165 C 370.132 124.442,333.075 125.078,330.932 125.845 C 329.400 126.393,328.609 127.116,324.992 131.277 C 323.218 133.318,320.801 133.512,316.485 131.960 C 314.649 131.300,313.209 131.200,305.585 131.200 L 296.800 131.200 296.800 124.965 L 296.800 118.729 307.789 118.845 C 318.389 118.956,318.811 118.931,319.689 118.140 C 322.447 115.658,325.682 114.036,330.000 112.971 C 333.695 112.060,356.281 112.170,356.524 113.100 C 356.625 113.485,356.728 113.046,356.754 112.124 C 356.779 111.202,356.620 110.336,356.400 110.200 C 356.180 110.064,356.000 109.549,356.000 109.056 C 356.000 108.563,355.821 107.981,355.602 107.762 C 355.384 107.544,355.164 106.878,355.115 106.282 C 355.066 105.687,354.885 105.200,354.713 105.200 C 354.541 105.200,354.400 104.930,354.400 104.600 C 354.400 104.270,354.220 104.000,354.000 104.000 C 353.780 104.000,353.600 103.770,353.600 103.488 C 353.600 103.207,353.240 102.717,352.800 102.400 C 352.360 102.083,352.000 101.685,352.000 101.516 C 352.000 101.172,350.880 99.741,350.071 99.051 C 349.781 98.803,349.239 98.329,348.868 97.997 C 348.497 97.665,347.565 97.084,346.797 96.706 C 346.029 96.328,345.580 96.007,345.800 95.993 C 346.350 95.959,343.880 94.912,341.092 93.996 C 338.507 93.147,332.611 93.100,293.800 93.616 M81.600 168.792 C 72.158 168.979,69.880 169.137,68.339 169.711 C 67.316 170.093,66.173 170.288,65.799 170.144 C 65.425 170.001,65.002 170.053,64.860 170.261 C 64.717 170.469,63.970 171.071,63.200 171.600 C 62.430 172.129,61.509 172.886,61.153 173.281 C 60.797 173.676,60.292 174.000,60.029 174.000 C 59.767 174.000,59.664 174.180,59.800 174.400 C 59.936 174.620,59.887 174.800,59.691 174.800 C 59.495 174.800,59.080 175.295,58.768 175.900 C 58.456 176.505,58.111 177.090,58.001 177.200 C 57.463 177.736,56.000 180.964,56.000 181.614 C 56.000 182.020,55.820 182.464,55.600 182.600 C 55.369 182.742,55.200 184.871,55.200 187.624 C 55.200 190.541,55.356 192.400,55.600 192.400 C 55.820 192.400,56.000 192.738,56.000 193.151 C 56.000 193.799,54.158 194.996,53.410 194.834 C 52.873 194.718,46.008 201.290,46.253 201.686 C 46.360 201.859,46.257 202.000,46.024 202.000 C 45.791 202.000,45.600 202.281,45.600 202.624 C 45.600 202.967,45.450 203.155,45.267 203.041 C 45.083 202.928,44.917 203.052,44.896 203.318 C 44.876 203.583,44.538 204.610,44.146 205.600 C 43.337 207.643,42.887 218.000,43.607 218.000 C 43.823 218.000,44.000 218.540,44.000 219.200 C 44.000 219.860,44.180 220.400,44.400 220.400 C 44.620 220.400,44.800 220.593,44.800 220.828 C 44.800 222.177,50.861 229.056,51.631 228.581 C 51.834 228.455,52.000 228.510,52.000 228.702 C 52.000 229.180,55.100 230.800,56.014 230.800 C 56.420 230.800,56.864 230.980,57.000 231.200 C 57.159 231.457,63.604 231.600,75.024 231.600 C 86.608 231.600,92.800 231.461,92.800 231.200 C 92.800 230.980,93.441 230.800,94.224 230.800 C 95.071 230.800,95.547 230.638,95.400 230.400 C 95.262 230.177,95.566 230.000,96.088 230.000 C 96.603 230.000,97.283 229.640,97.600 229.200 C 97.917 228.760,98.395 228.400,98.662 228.400 C 99.359 228.400,103.600 224.063,103.600 223.350 C 103.600 223.022,103.780 222.864,104.000 223.000 C 104.220 223.136,104.400 223.048,104.400 222.804 C 104.400 222.561,104.749 221.640,105.174 220.758 C 106.179 218.679,106.997 218.820,93.200 218.701 L 81.400 218.600 81.290 212.497 L 81.179 206.394 96.828 206.410 C 113.912 206.427,115.777 206.255,120.000 204.282 C 125.660 201.638,130.380 194.940,130.396 189.529 C 130.398 188.719,130.670 187.787,131.000 187.457 C 131.689 186.768,131.766 185.857,131.220 184.837 C 131.011 184.447,130.796 183.379,130.742 182.464 C 130.688 181.549,130.544 180.799,130.422 180.797 C 130.123 180.793,129.200 178.771,129.200 178.120 C 129.200 177.834,129.020 177.600,128.800 177.600 C 128.580 177.600,128.400 177.359,128.400 177.064 C 128.400 176.770,127.765 175.951,126.989 175.244 C 126.213 174.538,125.686 173.785,125.818 173.570 C 125.951 173.356,125.911 173.229,125.730 173.290 C 125.548 173.350,124.788 172.814,124.041 172.100 C 123.293 171.385,122.348 170.800,121.941 170.800 C 121.533 170.800,121.200 170.620,121.200 170.400 C 121.200 170.180,120.840 170.000,120.400 170.000 C 119.960 170.000,119.600 169.820,119.600 169.600 C 119.600 169.380,119.161 169.200,118.624 169.200 C 118.087 169.200,117.536 169.020,117.400 168.800 C 117.140 168.379,102.557 168.376,81.600 168.792 M282.000 193.616 C 282.000 193.827,281.460 194.000,280.800 194.000 C 280.140 194.000,279.600 194.180,279.600 194.400 C 279.600 194.620,279.407 194.800,279.172 194.800 C 277.283 194.800,270.986 200.997,270.129 203.700 C 270.007 204.085,269.748 204.400,269.553 204.400 C 269.359 204.400,269.200 204.929,269.200 205.576 C 269.200 206.223,269.007 206.872,268.771 207.018 C 268.119 207.421,268.718 214.944,269.637 217.905 C 270.710 221.365,272.349 223.868,275.400 226.711 C 276.830 228.043,278.000 229.328,278.000 229.566 C 278.000 229.805,278.371 230.000,278.824 230.000 C 279.277 230.000,279.548 230.160,279.427 230.357 C 279.027 231.004,282.090 231.300,290.900 231.466 L 299.600 231.630 299.600 233.591 C 299.600 234.670,299.780 235.664,300.000 235.800 C 300.220 235.936,300.400 236.497,300.400 237.047 C 300.400 237.612,300.574 237.940,300.800 237.800 C 301.020 237.664,301.200 237.798,301.200 238.098 C 301.200 238.775,303.745 241.600,304.354 241.600 C 304.599 241.600,304.800 241.780,304.800 242.000 C 304.800 242.220,305.070 242.400,305.400 242.400 C 305.730 242.400,306.000 242.580,306.000 242.800 C 306.000 243.020,306.360 243.200,306.800 243.200 C 307.240 243.200,307.600 243.384,307.600 243.609 C 307.600 243.880,312.442 244.009,322.012 243.990 C 331.034 243.973,336.336 243.820,336.188 243.581 C 336.059 243.371,336.213 243.200,336.531 243.200 C 337.379 243.200,339.231 242.165,338.927 241.861 C 338.784 241.717,338.967 241.600,339.333 241.600 C 340.194 241.600,341.600 240.194,341.600 239.333 C 341.600 238.967,341.717 238.784,341.861 238.927 C 342.165 239.231,343.200 237.379,343.200 236.531 C 343.200 236.213,343.380 236.064,343.600 236.200 C 343.858 236.360,344.000 234.745,344.000 231.647 C 344.000 228.879,343.831 226.743,343.600 226.600 C 343.380 226.464,343.200 226.003,343.200 225.576 C 343.200 225.149,343.042 224.800,342.849 224.800 C 342.655 224.800,342.290 224.301,342.038 223.692 C 340.702 220.466,333.451 217.271,330.390 218.560 C 330.055 218.701,325.915 218.768,321.190 218.708 L 312.600 218.600 312.490 212.500 L 312.379 206.400 320.690 206.395 C 329.842 206.389,330.771 206.276,330.689 205.188 C 330.659 204.785,330.491 204.544,330.317 204.651 C 330.143 204.759,329.996 204.522,329.991 204.124 C 329.986 203.726,329.630 202.950,329.200 202.400 C 328.770 201.850,328.414 201.247,328.409 201.061 C 328.364 199.352,321.870 194.879,317.800 193.754 C 315.387 193.087,282.000 192.959,282.000 193.616 M232.200 269.237 C 226.590 270.214,224.491 270.740,221.155 272.009 C 220.140 272.394,218.835 272.619,218.255 272.508 C 217.624 272.388,217.200 272.486,217.200 272.753 C 217.200 272.999,216.750 273.200,216.200 273.200 C 215.650 273.200,215.200 273.380,215.200 273.600 C 215.200 273.820,214.840 274.000,214.400 274.000 C 213.960 274.000,213.600 274.180,213.600 274.400 C 213.600 274.620,213.365 274.800,213.078 274.800 C 212.791 274.800,211.711 275.336,210.678 275.991 C 209.645 276.646,208.800 277.105,208.800 277.009 C 208.800 276.914,208.348 277.288,207.797 277.840 C 207.243 278.393,206.588 278.716,206.335 278.560 C 206.052 278.385,205.986 278.453,206.162 278.738 C 206.319 278.992,206.302 279.200,206.124 279.200 C 205.805 279.201,204.169 280.441,202.600 281.871 C 202.160 282.272,201.665 282.555,201.500 282.500 C 201.335 282.445,201.245 282.552,201.300 282.739 C 201.421 283.151,198.722 285.799,198.300 285.683 C 198.135 285.637,198.000 285.845,198.000 286.144 C 198.000 286.444,197.197 287.552,196.215 288.606 C 195.233 289.661,194.523 290.676,194.638 290.862 C 194.753 291.048,194.657 291.200,194.424 291.200 C 194.191 291.200,194.000 291.476,194.000 291.813 C 194.000 292.149,193.730 292.529,193.400 292.655 C 193.070 292.782,192.800 293.136,192.800 293.443 C 192.800 293.749,192.620 294.000,192.400 294.000 C 192.180 294.000,192.000 294.360,192.000 294.800 C 192.000 295.240,191.820 295.600,191.600 295.600 C 191.380 295.600,191.200 295.881,191.200 296.224 C 191.200 296.567,191.020 296.736,190.800 296.600 C 190.576 296.462,190.400 296.771,190.400 297.301 C 190.400 297.822,190.085 298.605,189.700 299.040 C 189.007 299.824,188.713 300.534,188.682 301.500 C 188.674 301.775,188.517 302.000,188.333 302.000 C 188.150 302.000,188.000 302.349,188.000 302.776 C 188.000 303.203,187.820 303.664,187.600 303.800 C 187.380 303.936,187.200 304.487,187.200 305.024 L 187.200 306.000 243.800 306.000 L 300.400 306.000 300.400 305.024 C 300.400 304.487,300.220 303.936,300.000 303.800 C 299.780 303.664,299.600 303.186,299.600 302.738 C 299.600 302.290,299.229 301.402,298.775 300.765 C 298.322 300.129,297.924 299.254,297.892 298.821 C 297.859 298.388,297.755 298.112,297.660 298.206 C 297.490 298.377,296.609 296.959,295.391 294.554 C 295.044 293.869,294.409 292.931,293.980 292.471 C 293.551 292.010,293.200 291.491,293.200 291.317 C 293.199 291.143,292.794 290.519,292.300 289.930 C 291.805 289.342,290.950 288.282,290.400 287.576 C 289.850 286.869,289.085 286.005,288.700 285.656 C 288.315 285.308,288.000 284.792,288.000 284.511 C 288.000 284.230,287.719 284.000,287.376 284.000 C 287.033 284.000,286.864 283.820,287.000 283.600 C 287.136 283.380,287.057 283.200,286.824 283.200 C 286.591 283.200,286.071 282.885,285.669 282.500 C 283.504 280.428,278.432 276.835,276.407 275.939 C 275.743 275.645,275.200 275.269,275.200 275.102 C 275.200 274.936,274.829 274.800,274.376 274.800 C 273.923 274.800,273.664 274.620,273.800 274.400 C 273.936 274.180,273.772 274.000,273.436 274.000 C 273.099 274.000,272.160 273.627,271.347 273.170 C 270.535 272.714,269.559 272.422,269.178 272.522 C 268.797 272.621,267.071 272.218,265.343 271.626 C 262.306 270.586,260.035 270.053,255.027 269.203 C 252.178 268.719,235.028 268.745,232.200 269.237 " stroke="none" fill="#7bb353" fill-rule="evenodd"></path></g></svg>